<?xml version="1.0" encoding="UTF-8"?>
<svg id="Layer_1" data-name="Layer 1" xmlns="http://www.w3.org/2000/svg" viewBox="0 0 287.63028 121.94647">
  <path d="M94.76004,26.62232v1.64363c0,18.48408-.00763,36.96816.01267,55.45222.00187,1.70928.05507,3.43665.29995,5.12444,1.19126,8.21066,5.22062,14.56871,12.67746,18.44192,7.43977,3.86434,15.34849,4.24805,23.40656,2.49986,5.39589-1.17063,10.07795-3.7085,13.74316-7.91884,4.52858-5.20211,6.13321-11.40632,6.13391-18.14182.00196-18.60384.00067-37.20769.00067-55.81153v-1.26389h-18.04341c-.01555.33983-.03878.61098-.03879.88214-.00176,18.48408.00385,36.96816-.01276,55.45222-.00124,1.3787-.0018,2.78972-.27675,4.12962-.74098,3.61103-2.87757,6.16631-6.46934,7.13467-3.71824,1.00247-7.31511.65665-10.30156-2.11843-2.35576-2.18904-3.07697-5.05617-3.07931-8.13914-.01413-18.60383-.00706-37.20768-.00708-55.81152,0-.50384,0-1.00768,0-1.55555h-18.04538ZM184.77379,42.58629v66.7853h18.05203V42.55914h17.62734v-15.90669h-53.27027v15.93383h17.5909ZM15.48112,18.33948c-3.62574,3.6019-7.1261,7.07926-10.49952,10.4305,3.3869,3.40228,6.8156,6.84654,10.37077,10.41785,1.34774-1.37364,2.73233-2.79966,4.13798-4.20467.27226-.27213.62224-.65224.94399-.65982,2.37893-.05604,4.75978-.03033,7.26023-.03033v14.81945c3.71742-1.93162,7.30983-1.93885,11.05784.06342v-14.89638c2.11007,0,4.06711.05038,6.01969-.02088,1.00242-.03659,1.73888.24329,2.41976.98626,1.23216,1.34452,2.54958,2.61111,3.7664,3.84434,3.55192-3.54823,6.98564-6.97839,10.27855-10.26788-3.38627-3.41345-6.82678-6.88158-10.35204-10.43513-1.31262,1.34111-2.64533,2.77573-4.07006,4.11252-.4108.38545-1.08535.68919-1.64084.69225-7.99379.04394-15.98799.0442-23.98177-.00066-.55373-.00311-1.2257-.31829-1.6356-.70648-1.44176-1.36541-2.79309-2.82608-4.07538-4.14435ZM46.99903,60.59205c-2.47777-2.44205-4.98359-4.89789-7.47389-7.36933-3.93045-3.90067-8.76437-3.91954-12.66942-.0249-6.02147,6.00543-12.03431,12.01949-18.05593,18.02478-2.96545,2.95741-5.94237,5.90336-8.79979,8.74098,2.65091,2.64299,5.23423,5.21859,7.97325,7.94943,8.31893-8.37659,16.71758-16.83346,25.34743-25.52314,2.05179,2.14022,3.96776,4.13876,5.75519,6.00323,2.65622-2.61528,5.2379-5.15718,7.92316-7.80105ZM19.467,80.23436c2.6004,2.57992,5.17853,5.13821,7.75718,7.69598,3.52843,3.49985,8.50107,3.49574,12.04174-.03336,6.81609-6.79381,13.61903-13.60078,20.43139-20.39832,2.25766-2.25275,4.52747-4.49335,6.68375-6.6324-2.64095-2.655-5.21233-5.24005-8.08138-8.12436-8.30611,8.44534-16.66584,16.94519-25.15338,25.575-1.99277-2.07938-3.88774-4.05669-5.73365-5.98281-2.70002,2.68459-5.26997,5.23986-7.94565,7.90026ZM19.1944,111.8678c2.77603,2.61448,5.52834,5.27707,8.35893,7.85389,3.21349,2.92538,7.82007,2.98106,11.07734.07669,2.11148-1.88271,4.04896-3.95938,6.08053-5.93257.78618-.76358,1.61693-1.48137,2.33394-2.13485-2.76573-2.77707-5.32021-5.34203-8.11217-8.14544-1.86894,1.98463-3.76767,4.00089-5.82016,6.18044-2.03445-2.09929-3.93659-4.06206-5.75282-5.93617-2.65848,2.61695-5.23814,5.15631-8.16558,8.03802ZM11.65979,88.15015c-2.66171,2.67011-5.24049,5.25705-7.90139,7.92636,2.27564,2.24507,4.62978,4.5678,6.98423,6.89021.39744.39205.77835.80304,1.19722,1.17083,3.02315,2.65462,7.73848,2.9493,10.65608.35051,3.02655-2.69582,5.79225-5.68378,8.64666-8.51876-2.65593-2.63886-5.21929-5.18574-7.89682-7.84604-1.88826,1.9245-3.83104,3.90455-5.88691,5.99987-2.02395-2.08465-3.935-4.05301-5.79907-5.97298ZM62.51565,96.03284c-2.61291-2.69504-5.15041-5.31229-7.81001-8.05549-1.92111,1.9797-3.83435,3.9513-6.04022,6.22445-1.96246-2.08559-3.8591-4.10124-5.5653-5.91448-2.63286,2.59111-5.2052,5.12267-7.91518,7.78969.22666.17063.54436.35762.7982.60895,2.5238,2.49892,4.97242,5.07772,7.5705,7.49657,2.90875,2.7081,7.76855,2.7722,10.73419.05119,2.90456-2.66496,5.59663-5.56094,8.22783-8.20088ZM.15752,60.64656c2.54272,2.57751,5.10793,5.17781,7.60136,7.70534,2.53242-2.51182,5.10207-5.06056,7.60552-7.54365-2.55896-2.56321-5.13652-5.14506-7.66385-7.67659-2.50775,2.4984-5.07282,5.05389-7.54303,7.51489ZM66.29598,80.18013c-2.5915-2.58827-5.15178-5.14538-7.55779-7.5484-2.55828,2.53048-5.15249,5.0965-7.64285,7.5598,2.48876,2.5039,5.03996,5.07063,7.56166,7.60767,2.51837-2.51181,5.08288-5.06963,7.63898-7.61907Z" fill="#fff" stroke-width="0"/>
  <path d="M287.63028,87.67087c-.21975,1.11949-.42097,2.24296-.66215,3.35782-2.24727,10.38767-8.82745,16.54191-19.00498,18.81421-7.85251,1.75319-15.66464,1.30168-22.98145-2.34546-8.54948-4.26155-12.8639-11.35499-13.22838-20.86411-.04573-1.19324-.00627-2.38974-.00627-3.68791h17.0259c0,.99477-.00457,2.01708.00076,3.03934.02904,5.57042,3.47138,9.26641,9.05671,9.5698,1.73847.09443,3.52218.03216,5.23711-.24989,4.09424-.67338,6.6252-3.27181,7.27593-7.19638.65638-3.95827-.80235-7.40454-4.41427-9.25863-2.99596-1.53789-6.23963-2.58915-9.35027-3.91075-3.91214-1.66216-7.96546-3.08355-11.66457-5.13608-7.54174-4.18468-11.2388-10.79876-11.6244-19.44811-.50817-11.39786,6.88593-21.44348,18.23551-24.17825,7.47835-1.80197,14.8442-1.388,21.79894,2.1021,7.0354,3.53056,10.94499,9.42158,12.12326,17.13024.32857,2.14977.39175,4.34002.58612,6.62274h-17.12513c0-.6588.00035-1.31908-.00006-1.97935-.00386-6.5267-4.03625-10.26965-10.58164-9.82222-4.17382.28532-7.33504,2.80795-7.85696,6.26979-.62921,4.17368,1.18307,7.47928,5.42958,9.28551,4.134,1.75838,8.38312,3.24549,12.56938,4.88306,4.35835,1.70486,8.58003,3.64997,12.12223,6.82136,3.5841,3.20891,5.69374,7.20288,6.55014,11.89833.15432.84623.32553,1.68938.48895,2.53396v5.74891Z" fill="#fff" stroke-width="0"/>
  <path d="M33.40646,0c.66677.7272,1.3088,1.47899,2.00467,2.17726,2.7323,2.74176,5.48157,5.46666,8.13495,8.10861-3.50368,3.49473-6.96989,6.95208-10.39235,10.36578-3.27398-3.29249-6.69851-6.73638-10.21918-10.27695C26.24888,7.01418,29.70775,3.50709,33.16663,0c.07994,0,.15989,0,.23983,0Z" fill="#fff" stroke-width="0"/>
  <path d="M94.76004,26.62232h18.04538c0,.54787,0,1.05171,0,1.55555.00002,18.60385-.00705,37.2077.00708,55.81152.00234,3.08297.72356,5.95011,3.07931,8.13914,2.98645,2.77507,6.58332,3.12089,10.30156,2.11843,3.59177-.96836,5.72836-3.52364,6.46934-7.13467.27495-1.3399.27551-2.75092.27675-4.12962.01661-18.48406.01101-36.96815.01276-55.45222.00001-.27115.02325-.5423.03879-.88214h18.04341v1.26389c0,18.60384.00129,37.20769-.00067,55.81153-.0007,6.7355-1.60534,12.93972-6.13391,18.14182-3.66521,4.21033-8.34727,6.74821-13.74316,7.91884-8.05807,1.74819-15.9668,1.36448-23.40656-2.49986-7.45683-3.87321-11.4862-10.23126-12.67746-18.44192-.24488-1.68779-.29807-3.41516-.29995-5.12444-.0203-18.48405-.01267-36.96814-.01267-55.45222v-1.64363Z" fill="#fff" stroke-width="0"/>
  <path d="M184.77379,42.58629h-17.5909v-15.93383h53.27027v15.90669h-17.62734v66.81245h-18.05203V42.58629Z" fill="#fff" stroke-width="0"/>
  <path d="M15.48112,18.33948c1.28229,1.31827,2.63362,2.77894,4.07538,4.14435.4099.38819,1.08187.70337,1.6356.70648,7.99378.04486,15.98798.04461,23.98177.00066.55549-.00305,1.23004-.30679,1.64084-.69225,1.42473-1.33679,2.75744-2.77141,4.07006-4.11252,3.52526,3.55355,6.96577,7.02169,10.35204,10.43513-3.29291,3.28949-6.72663,6.71965-10.27855,10.26788-1.21682-1.23323-2.53424-2.49982-3.7664-3.84434-.68088-.74297-1.41735-1.02285-2.41976-.98626-1.95259.07127-3.90963.02088-6.01969.02088v14.89638c-3.74801-2.00227-7.34042-1.99504-11.05784-.06342v-14.81945c-2.50044,0-4.8813-.0257-7.26023.03033-.32175.00758-.67173.38769-.94399.65982-1.40565,1.405-2.79024,2.83103-4.13798,4.20467-3.55517-3.57131-6.98387-7.01557-10.37077-10.41785,3.37342-3.35125,6.87378-6.8286,10.49952-10.4305Z" fill="#fff" stroke-width="0"/>
  <path d="M46.99903,60.59205c-2.68526,2.64387-5.26694,5.18577-7.92316,7.80105-1.78743-1.86447-3.7034-3.86301-5.75519-6.00323-8.62985,8.68967-17.0285,17.14655-25.34743,25.52314-2.73902-2.73084-5.32234-5.30644-7.97325-7.94943,2.85742-2.83761,5.83433-5.78357,8.79979-8.74098,6.02162-6.00529,12.03446-12.01935,18.05593-18.02478,3.90505-3.89464,8.73898-3.87577,12.66942.0249,2.4903,2.47144,4.99612,4.92728,7.47389,7.36933Z" fill="#fff" stroke-width="0"/>
  <path d="M19.467,80.23436c2.67569-2.6604,5.24564-5.21567,7.94565-7.90026,1.84591,1.92612,3.74088,3.90343,5.73365,5.98281,8.48754-8.62981,16.84727-17.12966,25.15338-25.575,2.86905,2.8843,5.44042,5.46936,8.08138,8.12436-2.15629,2.13904-4.42609,4.37964-6.68375,6.6324-6.81236,6.79754-13.6153,13.60451-20.43139,20.39832-3.54067,3.5291-8.51332,3.53321-12.04174.03336-2.57865-2.55777-5.15678-5.11606-7.75718-7.69598Z" fill="#fff" stroke-width="0"/>
  <path d="M19.1944,111.8678c2.92744-2.88171,5.50711-5.42107,8.16558-8.03802,1.81623,1.87412,3.71837,3.83688,5.75282,5.93617,2.05249-2.17955,3.95122-4.19581,5.82016-6.18044,2.79196,2.80341,5.34644,5.36837,8.11217,8.14544-.717.65349-1.54776,1.37128-2.33394,2.13485-2.03158,1.97319-3.96906,4.04986-6.08053,5.93257-3.25727,2.90437-7.86384,2.84869-11.07734-.07669-2.83059-2.57682-5.5829-5.2394-8.35893-7.85389Z" fill="#fff" stroke-width="0"/>
  <path d="M11.65979,88.15015c1.86407,1.91997,3.77512,3.88833,5.79907,5.97298,2.05587-2.09532,3.99865-4.07538,5.88691-5.99987,2.67752,2.6603,5.24089,5.20719,7.89682,7.84604-2.85441,2.83498-5.62012,5.82293-8.64666,8.51876-2.9176,2.59879-7.63292,2.30411-10.65608-.35051-.41887-.36779-.79978-.77878-1.19722-1.17083-2.35445-2.32241-4.70859-4.64514-6.98423-6.89021,2.6609-2.66931,5.23969-5.25624,7.90139-7.92636Z" fill="#fff" stroke-width="0"/>
  <path d="M62.51565,96.03284c-2.6312,2.63994-5.32327,5.53591-8.22783,8.20088-2.96564,2.72101-7.82544,2.65691-10.73419-.05119-2.59808-2.41885-5.0467-4.99765-7.5705-7.49657-.25384-.25134-.57154-.43833-.7982-.60895,2.70999-2.66702,5.28233-5.19857,7.91518-7.78969,1.7062,1.81325,3.60284,3.82889,5.5653,5.91448,2.20587-2.27315,4.11911-4.24474,6.04022-6.22445,2.6596,2.7432,5.1971,5.36046,7.81001,8.05549Z" fill="#fff" stroke-width="0"/>
  <path d="M.15752,60.64656c2.47021-2.46099,5.03528-5.01649,7.54303-7.51489,2.52733,2.53153,5.10489,5.11338,7.66385,7.67659-2.50345,2.48309-5.0731,5.03182-7.60552,7.54365-2.49343-2.52753-5.05864-5.12783-7.60136-7.70534Z" fill="#fff" stroke-width="0"/>
  <path d="M66.29598,80.18013c-2.5561,2.54944-5.12061,5.10726-7.63898,7.61907-2.5217-2.53704-5.0729-5.10377-7.56166-7.60767,2.49036-2.4633,5.08457-5.02932,7.64285-7.5598,2.40601,2.40303,4.96629,4.96013,7.55779,7.5484Z" fill="#fff" stroke-width="0"/>
</svg>